<svg width="40" height="32" viewBox="0 0 40 32" fill="none" xmlns="http://www.w3.org/2000/svg">
<rect opacity="0.01" width="32" height="32" fill="#FF963C"/>
<path fill-rule="evenodd" clip-rule="evenodd" d="M28.5 25.2975H16.0722L8.07178 31V25.2975H3.5V3H28.5V25.2975H28.5ZM26.2142 5.27186H5.78577V23.0256H10.3576V26.5755L15.3374 23.0256H26.2142V5.27186ZM17.3634 13.391V19.9249H14.7335V13.391H17.3634ZM16.048 11.4314C16.9555 11.4314 17.6913 10.6998 17.6913 9.79798C17.6913 8.896 16.9555 8.16444 16.048 8.16444C15.1405 8.16444 14.4044 8.89601 14.4044 9.79798C14.4044 10.6998 15.1405 11.4314 16.048 11.4314Z" fill="#FF963C"/>
<circle cx="32" cy="8" r="8" fill="#EA6C00"/>
<g clipPath="url(#clip0_0_1)">
<path d="M32.9854 4.72727V12H32.1048V5.65057H32.0621L30.2866 6.82955V5.93466L32.1048 4.72727H32.9854Z" fill="white"/>
</g>
<defs>
<clipPath id="clip0_0_1">
<rect width="16" height="14.5" fill="white" transform="translate(24 2)"/>
</clipPath>
</defs>
</svg>
